<svg width="649" height="213" viewBox="0 0 649 213" fill="none" xmlns="http://www.w3.org/2000/svg">
<g filter="url(#filter0_d)">
<path d="M209.6 84V120.6C209.6 129.2 209.95 134.45 210.65 136.35C211.35 138.15 212.1 139.7 212.9 141C214.4 143.6 217 144.9 220.7 144.9C224.5 144.9 227.15 144.4 228.65 143.4V146.4C223.85 149.8 218.6 151.5 212.9 151.5C204.5 151.5 198.1 149.5 193.7 145.5C189.3 141.5 187.1 134.35 187.1 124.05V84H176V81H187.1C191.9 80.2 196.15 77.9 199.85 74.1C203.55 70.2 206.1 64.85 207.5 58.05H209.6V81H227V84H209.6ZM302.499 120H257.199C258.199 137.6 265.049 146.4 277.749 146.4C281.149 146.4 284.999 145.6 289.299 144C293.699 142.4 296.899 140.15 298.899 137.25L300.999 138.75C298.799 142.45 295.049 145.5 289.749 147.9C284.449 150.3 279.149 151.5 273.849 151.5C268.649 151.5 263.949 151 259.749 150C255.549 148.9 251.449 147.1 247.449 144.6C243.449 142.1 240.299 138.35 237.999 133.35C235.799 128.35 234.699 122.3 234.699 115.2C234.699 103.1 238.049 94.15 244.749 88.35C251.449 82.45 259.549 79.5 269.049 79.5C278.649 79.5 286.599 82.7 292.899 89.1C299.299 95.5 302.499 105.8 302.499 120ZM257.049 117H281.499C281.499 107.8 280.499 99.75 278.499 92.85C276.599 85.95 273.499 82.5 269.199 82.5C264.899 82.5 261.799 85.85 259.899 92.55C257.999 99.15 257.049 106.75 257.049 115.35V117ZM385.696 150C385.696 147.7 385.046 145.8 383.746 144.3C382.446 142.7 380.746 141.9 378.646 141.9C376.646 141.9 374.546 142.75 372.346 144.45C370.246 146.15 367.746 147.9 364.846 149.7C362.046 151.4 358.646 152.25 354.646 152.25C341.046 152.25 330.496 148.75 322.996 141.75C315.596 134.75 311.896 124 311.896 109.5C311.896 79.2 326.046 64.05 354.346 64.05C359.446 64.05 364.646 65.3 369.946 67.8C375.346 70.3 378.646 71.55 379.846 71.55C381.046 71.55 382.046 70.95 382.846 69.75C383.646 68.45 384.046 67.2 384.046 66H386.896V96.45H383.896C383.896 88.85 380.896 82.05 374.896 76.05C368.996 70.05 362.146 67.05 354.346 67.05C348.346 67.05 343.796 70.3 340.696 76.8C337.596 83.2 336.046 93.85 336.046 108.75C336.046 123.55 337.596 134 340.696 140.1C343.896 146.2 348.546 149.25 354.646 149.25C364.246 149.25 369.046 140.7 369.046 123.6V112.5H359.596V109.5H395.596V112.5H388.546V150H385.696ZM470.956 120H425.656C426.656 137.6 433.506 146.4 446.206 146.4C449.606 146.4 453.456 145.6 457.756 144C462.156 142.4 465.356 140.15 467.356 137.25L469.456 138.75C467.256 142.45 463.506 145.5 458.206 147.9C452.906 150.3 447.606 151.5 442.306 151.5C437.106 151.5 432.406 151 428.206 150C424.006 148.9 419.906 147.1 415.906 144.6C411.906 142.1 408.756 138.35 406.456 133.35C404.256 128.35 403.156 122.3 403.156 115.2C403.156 103.1 406.506 94.15 413.206 88.35C419.906 82.45 428.006 79.5 437.506 79.5C447.106 79.5 455.056 82.7 461.356 89.1C467.756 95.5 470.956 105.8 470.956 120ZM425.506 117H449.956C449.956 107.8 448.956 99.75 446.956 92.85C445.056 85.95 441.956 82.5 437.656 82.5C433.356 82.5 430.256 85.85 428.356 92.55C426.456 99.15 425.506 106.75 425.506 115.35V117ZM548.154 120H502.854C503.854 137.6 510.704 146.4 523.404 146.4C526.804 146.4 530.654 145.6 534.954 144C539.354 142.4 542.554 140.15 544.554 137.25L546.654 138.75C544.454 142.45 540.704 145.5 535.404 147.9C530.104 150.3 524.804 151.5 519.504 151.5C514.304 151.5 509.604 151 505.404 150C501.204 148.9 497.104 147.1 493.104 144.6C489.104 142.1 485.954 138.35 483.654 133.35C481.454 128.35 480.354 122.3 480.354 115.2C480.354 103.1 483.704 94.15 490.404 88.35C497.104 82.45 505.204 79.5 514.704 79.5C524.304 79.5 532.254 82.7 538.554 89.1C544.954 95.5 548.154 105.8 548.154 120ZM502.704 117H527.154C527.154 107.8 526.154 99.75 524.154 92.85C522.254 85.95 519.154 82.5 514.854 82.5C510.554 82.5 507.454 85.85 505.554 92.55C503.654 99.15 502.704 106.75 502.704 115.35V117ZM644.251 147V150C630.651 150 621.201 149.05 615.901 147.15C610.701 145.15 605.551 140.25 600.451 132.45L591.001 117.9L589.051 119.7V147H596.551V150H559.051V147H566.551V52.5H559.051V49.5H589.051V115.2L620.401 84H608.251V81H636.751V84H624.901L606.901 101.85L624.901 128.85C633.001 140.95 639.451 147 644.251 147Z" fill="#3A3A3A"/>
<path d="M16 147H28V150H4V147H13V75.6C9.8 71.2 6.8 69 4 69V66H32.05L74.2 115.95V69H62.2V66H87.7V69H77.2V151.5H74.2L16 79.35V147Z" fill="#3A3A3A"/>
<path fill-rule="evenodd" clip-rule="evenodd" d="M103.2 127.168L101.19 132.511L99.8661 136.031L108.243 132.305L110.741 131.194L113.279 132.175C118.519 134.201 124.607 135.388 131.157 135.388C141.915 135.388 151.302 132.193 157.763 127.485C164.323 122.705 166.944 117.19 166.944 112.511C166.944 107.831 164.323 102.316 157.763 97.5358C151.302 92.8275 141.915 89.633 131.157 89.633C120.399 89.633 111.012 92.8275 104.551 97.5358C97.9908 102.316 95.3698 107.831 95.3698 112.511C95.3698 115.83 96.6315 119.431 99.6718 123.012L103.2 127.168ZM95.6884 147.138L94.3922 147.715L89.8701 149.726L88.6918 150.251C87.6628 150.708 86.6667 149.503 87.1069 148.333L87.6109 146.993L89.5453 141.85L90.0998 140.376L94.3546 129.064C90.2711 124.253 87.9141 118.582 87.9141 112.511C87.9141 95.1077 107.275 81 131.157 81C155.04 81 174.4 95.1077 174.4 112.511C174.4 129.913 155.04 144.021 131.157 144.021C123.845 144.021 116.956 142.698 110.917 140.363L95.6884 147.138ZM107.05 101.719H159.24V110.352H107.05V101.719ZM149.548 115.244H107.05V123.877H149.548V115.244Z" fill="#3D3C96" fill-opacity="0.75"/>
</g>
<defs>
<filter id="filter0_d" x="0" y="49.5" width="648.251" height="110.75" filterUnits="userSpaceOnUse" color-interpolation-filters="sRGB">
<feFlood flood-opacity="0" result="BackgroundImageFix"/>
<feColorMatrix in="SourceAlpha" type="matrix" values="0 0 0 0 0 0 0 0 0 0 0 0 0 0 0 0 0 0 127 0"/>
<feOffset dy="4"/>
<feGaussianBlur stdDeviation="2"/>
<feColorMatrix type="matrix" values="0 0 0 0 0 0 0 0 0 0 0 0 0 0 0 0 0 0 0.25 0"/>
<feBlend mode="normal" in2="BackgroundImageFix" result="effect1_dropShadow"/>
<feBlend mode="normal" in="SourceGraphic" in2="effect1_dropShadow" result="shape"/>
</filter>
</defs>
</svg>
